<svg viewBox="0 0 74 25" fill="none" xmlns="http://www.w3.org/2000/svg">
<g clip-path="url(#clip0_9_32)">
<path d="M7.78454 0C15.9825 0 20.6012 4.44584 20.6012 12.3649C20.6012 20.284 15.9825 24.7298 7.78454 24.7298H0.248047V0H7.78454ZM3.44472 21.8835H7.75227C13.9359 21.8835 17.234 18.5485 17.234 12.3672C17.234 6.18592 13.9336 2.84866 7.74997 2.84866H3.44472V21.8835Z" fill="#212121" class="will-theme-transition"></path>
<path d="M32.7253 0C38.4226 0 41.0616 2.53521 41.0616 6.28732C41.0616 9.06684 39.6372 11.0812 36.9637 12.0538V12.1229C39.9161 12.8166 41.6193 14.9024 41.6193 17.9239C41.6193 22.0563 38.5978 24.7321 33.3868 24.7321H24.668V0H32.7276H32.7253ZM27.8623 10.8023H32.481C36.3714 10.8023 37.8995 9.23969 37.8995 6.73905C37.8995 4.23841 36.3369 2.71037 32.6193 2.71037H27.86V10.8046L27.8623 10.8023ZM27.8623 22.0218H32.9328C36.5789 22.0218 38.3166 20.5283 38.3166 17.7488C38.3166 14.9693 36.6157 13.4758 32.481 13.4758H27.8623V22.0195V22.0218Z" fill="#212121" class="will-theme-transition"></path>
<path d="M49.7082 17.3685L46.9978 24.7321H43.5938L52.974 0H57.3162L66.7287 24.7321H63.29L60.6165 17.3685H49.7105H49.7082ZM58.7751 12.2981C57.5236 8.85941 56.3781 5.66274 55.1981 2.22407H55.129C53.9489 5.66274 52.8012 8.85941 51.552 12.2981L50.7177 14.5567H59.5748L58.7751 12.2981Z" fill="#212121" class="will-theme-transition"></path>
<path d="M74.002 8.13867H69.8535V12.2872H74.002V8.13867Z" fill="#212121" class="will-theme-transition"></path>
<path d="M74.002 20.583H69.8535V24.7315H74.002V20.583Z" fill="#212121" class="will-theme-transition"></path>
</g>
<defs>
<clipPath id="clip0_9_32">
<rect width="73.7518" height="24.7314" fill="white" transform="translate(0.248047)"></rect>
</clipPath>
</defs>
</svg>